<svg width="48" height="48" viewBox="0 0 48 48" fill="none" xmlns="http://www.w3.org/2000/svg">
<g opacity="0.2">
<path fill-rule="evenodd" clip-rule="evenodd" d="M25.9133 14.013L31.1333 15.0858L27.0466 20.5082C26.7618 20.9109 26.7951 21.452 27.1227 21.8028C27.452 22.1555 27.984 22.2146 28.3868 21.9441L38.9218 14.858C39.2488 14.6384 39.4218 14.2459 39.3647 13.8541C39.3079 13.4611 39.0295 13.1403 38.6526 13.0359L33.4328 11.9631L37.5196 6.54103C37.8045 6.1384 37.7714 5.59717 37.4437 5.24626C37.1143 4.89357 36.5822 4.83448 36.1794 5.10519L25.6439 12.1912C25.3173 12.4108 25.1445 12.8031 25.2013 13.1947C25.2585 13.5878 25.5367 13.9084 25.9133 14.013ZM6.5 30.4V22L13.4855 17.8087C13.8022 17.6187 14.1978 17.6187 14.5145 17.8087L21.5 22V30.4C21.5 30.7693 21.2965 31.1086 20.9706 31.2824L14 35L7.02941 31.2824C6.70355 31.1086 6.5 30.7693 6.5 30.4ZM40.4985 27.9933C40.1867 27.414 39.8459 26.898 38.5117 26.6604L38.4759 26.654L38.4757 26.654C37.6389 26.505 37.2209 26.4305 36.8025 26.3581C36.3847 26.2857 35.9665 26.2153 35.1305 26.0745L35.1298 26.0744L35.0911 26.0679C33.7547 25.8429 33.2541 26.2131 32.7586 26.6526C32.6301 26.7666 32.5019 26.8852 32.3756 27.0022C32.0914 27.2653 31.8168 27.5196 31.569 27.6922C30.6626 28.3236 30.0394 28.2859 29.7831 28.2704L29.7828 28.2703C29.7645 28.2692 29.7481 28.2682 29.7336 28.2676C29.2458 28.2465 28.8162 28.2421 28.438 28.2511C27.0357 28.2843 26.3403 28.5012 26.006 28.7315C24.7016 29.6304 23.7934 32.8682 23.3911 35.0995C22.9888 37.3309 22.6843 40.8186 23.5954 42.1013C24.0907 42.7985 26.0734 44.3249 33.3362 45.583C40.599 46.8411 42.9953 46.0732 43.7044 45.5846C45.0089 44.6857 45.9425 41.307 46.3448 39.0757C46.7471 36.8443 47.0262 33.4975 46.1151 32.2149C45.8816 31.8863 45.3042 31.4489 43.9984 30.9465C43.6463 30.8111 43.1512 30.643 42.7755 30.5268C42.7616 30.5225 42.7458 30.5179 42.7281 30.5127C42.4818 30.4412 41.8832 30.2673 41.2525 29.3696C41.0801 29.1242 40.911 28.793 40.7361 28.4504C40.6583 28.2981 40.5794 28.1436 40.4985 27.9933ZM39.2913 37.4641C38.8664 39.8208 36.5728 41.3936 34.1684 40.9771C31.764 40.5606 30.1593 38.3125 30.5842 35.9558C31.0092 33.5991 33.3028 32.0262 35.7072 32.4427C38.1116 32.8592 39.7162 35.1074 39.2913 37.4641Z" fill="#12A7B2"/>
<path d="M31.1333 15.0858L31.9319 15.6877C32.1383 15.4138 32.19 15.0533 32.0688 14.7325C31.9476 14.4117 31.6705 14.1753 31.3346 14.1063L31.1333 15.0858ZM25.9133 14.013L25.6456 14.9765C25.6676 14.9826 25.6897 14.988 25.712 14.9925L25.9133 14.013ZM27.0466 20.5082L26.248 19.9063C26.2419 19.9144 26.236 19.9225 26.2301 19.9308L27.0466 20.5082ZM27.1227 21.8028L27.8536 21.1203L27.8536 21.1203L27.1227 21.8028ZM28.3868 21.9441L28.9444 22.7742L28.9449 22.7738L28.3868 21.9441ZM38.9218 14.858L38.3642 14.0279L38.3637 14.0283L38.9218 14.858ZM39.3647 13.8541L38.3749 13.997L38.3751 13.9983L39.3647 13.8541ZM38.6526 13.0359L38.9195 12.0722C38.8978 12.0662 38.8759 12.0609 38.8539 12.0564L38.6526 13.0359ZM33.4328 11.9631L32.6343 11.3612C32.4278 11.6351 32.3762 11.9956 32.4973 12.3165C32.6185 12.6373 32.8956 12.8736 33.2315 12.9427L33.4328 11.9631ZM37.5196 6.54103L38.3182 7.14294C38.3243 7.13493 38.3302 7.12683 38.336 7.11864L37.5196 6.54103ZM37.4437 5.24626L38.1746 4.56377L38.1746 4.56377L37.4437 5.24626ZM36.1794 5.10519L35.6216 4.2752L35.6213 4.27541L36.1794 5.10519ZM25.6439 12.1912L26.202 13.021L26.202 13.0209L25.6439 12.1912ZM25.2013 13.1947L26.191 13.0509L26.191 13.0509L25.2013 13.1947ZM6.5 22L5.9855 21.1425C5.6843 21.3232 5.5 21.6487 5.5 22H6.5ZM13.4855 17.8087L14 18.6662L14 18.6662L13.4855 17.8087ZM14.5145 17.8087L15.029 16.9512L15.029 16.9512L14.5145 17.8087ZM21.5 22H22.5C22.5 21.6487 22.3157 21.3232 22.0145 21.1425L21.5 22ZM20.9706 31.2824L21.4412 32.1647L21.4412 32.1647L20.9706 31.2824ZM14 35L13.5294 35.8824C13.8235 36.0392 14.1765 36.0392 14.4706 35.8824L14 35ZM7.02941 31.2824L6.55882 32.1647L6.55882 32.1647L7.02941 31.2824ZM38.5117 26.6604L38.3364 27.6449L38.3364 27.6449L38.5117 26.6604ZM40.4985 27.9933L41.3791 27.5194L41.3791 27.5194L40.4985 27.9933ZM38.4759 26.654L38.2859 27.6358C38.2908 27.6368 38.2957 27.6377 38.3006 27.6385L38.4759 26.654ZM38.4757 26.654L38.6658 25.6722C38.6609 25.6713 38.656 25.6704 38.6511 25.6695L38.4757 26.654ZM36.8025 26.3581L36.9732 25.3727L36.9732 25.3727L36.8025 26.3581ZM35.1305 26.0745L35.2966 25.0884L35.2937 25.0879L35.1305 26.0745ZM35.1298 26.0744L34.9638 27.0605L34.9667 27.061L35.1298 26.0744ZM35.0911 26.0679L35.2571 25.0818L35.2571 25.0818L35.0911 26.0679ZM32.7586 26.6526L32.095 25.9045L32.095 25.9045L32.7586 26.6526ZM32.3756 27.0022L33.055 27.7359L33.055 27.7359L32.3756 27.0022ZM31.569 27.6922L30.9974 26.8717L30.9973 26.8717L31.569 27.6922ZM29.7831 28.2704L29.8435 27.2722L29.8406 27.272L29.7831 28.2704ZM29.7828 28.2703L29.7223 29.2685L29.7252 29.2687L29.7828 28.2703ZM29.7336 28.2676L29.6904 29.2667L29.6905 29.2667L29.7336 28.2676ZM28.438 28.2511L28.4617 29.2508L28.4617 29.2508L28.438 28.2511ZM26.006 28.7315L25.4386 27.9081L25.4386 27.9081L26.006 28.7315ZM23.3911 35.0995L24.3752 35.277L24.3752 35.277L23.3911 35.0995ZM23.5954 42.1013L22.7802 42.6804L22.7802 42.6804L23.5954 42.1013ZM33.3362 45.583L33.1655 46.5683L33.1655 46.5683L33.3362 45.583ZM43.7044 45.5846L44.2718 46.4081L44.2718 46.408L43.7044 45.5846ZM46.3448 39.0757L45.3607 38.8982L45.3607 38.8982L46.3448 39.0757ZM46.1151 32.2149L46.9303 31.6358L46.9303 31.6358L46.1151 32.2149ZM43.9984 30.9465L43.6394 31.8799L43.6394 31.8799L43.9984 30.9465ZM42.7755 30.5268L43.0711 29.5715L43.071 29.5714L42.7755 30.5268ZM42.7281 30.5127L42.4491 31.473L42.4492 31.4731L42.7281 30.5127ZM41.2525 29.3696L40.4343 29.9445L40.4343 29.9445L41.2525 29.3696ZM40.7361 28.4504L39.8454 28.9052L39.8454 28.9052L40.7361 28.4504ZM34.1684 40.9771L34.3391 39.9918L34.3391 39.9918L34.1684 40.9771ZM39.2913 37.4641L38.3072 37.2866L38.3072 37.2866L39.2913 37.4641ZM35.7072 32.4427L35.8779 31.4574L35.8779 31.4574L35.7072 32.4427ZM31.3346 14.1063L26.1147 13.0335L25.712 14.9925L30.932 16.0654L31.3346 14.1063ZM27.8452 21.1101L31.9319 15.6877L30.3347 14.4839L26.248 19.9063L27.8452 21.1101ZM27.8536 21.1203C27.8536 21.1203 27.8538 21.1206 27.854 21.121C27.8543 21.1213 27.8543 21.1215 27.8543 21.1214C27.8542 21.1211 27.8534 21.1192 27.8532 21.1155C27.8528 21.1082 27.8545 21.0977 27.863 21.0856L26.2301 19.9308C25.6799 20.7089 25.7308 21.7775 26.3918 22.4853L27.8536 21.1203ZM27.8293 21.1139C27.8277 21.115 27.8283 21.1143 27.8307 21.1137C27.8328 21.1132 27.8353 21.113 27.838 21.1133C27.8408 21.1136 27.844 21.1145 27.8473 21.1161C27.849 21.1169 27.8505 21.1179 27.8517 21.1188C27.853 21.1197 27.8536 21.1203 27.8536 21.1203L26.3918 22.4853C27.0597 23.2006 28.1384 23.3155 28.9444 22.7742L27.8293 21.1139ZM38.3637 14.0283L27.8287 21.1143L28.9449 22.7738L39.4799 15.6878L38.3637 14.0283ZM38.3751 13.9983C38.3759 14.0038 38.3753 14.0103 38.3723 14.0171C38.3693 14.0238 38.3658 14.0268 38.3642 14.0279L39.4794 15.6882C40.1284 15.2522 40.4664 14.4795 40.3542 13.7099L38.3751 13.9983ZM38.3857 13.9996C38.3832 13.9989 38.3804 13.9977 38.3781 13.9962C38.3759 13.9948 38.3746 13.9936 38.3741 13.993C38.373 13.9917 38.3742 13.9923 38.3749 13.997L40.3544 13.7112C40.2424 12.9352 39.6884 12.2851 38.9195 12.0722L38.3857 13.9996ZM33.2315 12.9427L38.4513 14.0154L38.8539 12.0564L33.6341 10.9836L33.2315 12.9427ZM36.7211 5.93913L32.6343 11.3612L34.2314 12.565L38.3182 7.14294L36.7211 5.93913ZM36.7128 5.92875C36.7128 5.92876 36.7126 5.92852 36.7123 5.92812C36.7121 5.92775 36.712 5.92755 36.7121 5.92766C36.7122 5.92794 36.7129 5.92989 36.7131 5.93359C36.7136 5.94089 36.7119 5.95133 36.7033 5.96343L38.336 7.11864C38.8865 6.34058 38.8356 5.2717 38.1746 4.56377L36.7128 5.92875ZM36.7371 5.93517C36.7387 5.9341 36.7381 5.93479 36.7357 5.93539C36.7336 5.9359 36.7311 5.9361 36.7283 5.9358C36.7256 5.93549 36.7224 5.93464 36.719 5.93298C36.7173 5.93215 36.7159 5.93122 36.7146 5.93031C36.7134 5.92938 36.7128 5.92875 36.7128 5.92875L38.1746 4.56377C37.5066 3.84838 36.4275 3.73356 35.6216 4.2752L36.7371 5.93517ZM26.202 13.0209L36.7375 5.93496L35.6213 4.27541L25.0859 11.3614L26.202 13.0209ZM26.191 13.0509C26.1902 13.0453 26.1908 13.0388 26.1938 13.0319C26.1968 13.0251 26.2003 13.0221 26.202 13.021L25.0859 11.3614C24.4377 11.7973 24.1 12.5694 24.2117 13.3384L26.191 13.0509ZM26.1811 13.0495C26.1835 13.0502 26.1862 13.0514 26.1884 13.0528C26.1905 13.0542 26.1917 13.0553 26.1922 13.0559C26.1932 13.0571 26.1917 13.0561 26.191 13.0509L24.2117 13.3384C24.3244 14.1137 24.8776 14.7631 25.6456 14.9765L26.1811 13.0495ZM5.5 22V30.4H7.5V22H5.5ZM12.971 16.9512L5.9855 21.1425L7.0145 22.8575L14 18.6662L12.971 16.9512ZM15.029 16.9512C14.3956 16.5712 13.6044 16.5712 12.971 16.9512L14 18.6662L14 18.6662L15.029 16.9512ZM22.0145 21.1425L15.029 16.9512L14 18.6662L20.9855 22.8575L22.0145 21.1425ZM22.5 30.4V22H20.5V30.4H22.5ZM21.4412 32.1647C22.0929 31.8171 22.5 31.1386 22.5 30.4H20.5L20.5 30.4L21.4412 32.1647ZM14.4706 35.8824L21.4412 32.1647L20.5 30.4L13.5294 34.1176L14.4706 35.8824ZM6.55882 32.1647L13.5294 35.8824L14.4706 34.1176L7.5 30.4L6.55882 32.1647ZM5.5 30.4C5.5 31.1386 5.9071 31.8171 6.55882 32.1647L7.5 30.4L7.5 30.4H5.5ZM38.3364 27.6449C38.8974 27.7448 39.1444 27.8847 39.2666 27.9818C39.3892 28.0792 39.4734 28.1986 39.6179 28.4672L41.3791 27.5194C41.2119 27.2086 40.9697 26.7805 40.5105 26.4157C40.0507 26.0505 39.4603 25.8136 38.6871 25.6759L38.3364 27.6449ZM38.3006 27.6385L38.3364 27.6449L38.6871 25.6759L38.6513 25.6695L38.3006 27.6385ZM38.2857 27.6358L38.2859 27.6358L38.6659 25.6723L38.6658 25.6722L38.2857 27.6358ZM36.6318 27.3434C37.0474 27.4154 37.4627 27.4893 38.3004 27.6385L38.6511 25.6695C37.8151 25.5206 37.3944 25.4457 36.9732 25.3727L36.6318 27.3434ZM34.9645 27.0606C35.8013 27.2015 36.2169 27.2715 36.6318 27.3434L36.9732 25.3727C36.5525 25.2999 36.1317 25.229 35.2966 25.0884L34.9645 27.0606ZM34.9667 27.061L34.9674 27.0611L35.2937 25.0879L35.2929 25.0878L34.9667 27.061ZM34.9251 27.054L34.9638 27.0605L35.2958 25.0883L35.2571 25.0818L34.9251 27.054ZM33.4222 27.4007C33.6523 27.1966 33.7757 27.1103 33.9289 27.0587C34.0809 27.0074 34.3636 26.9595 34.9251 27.054L35.2571 25.0818C34.4822 24.9513 33.8464 24.9759 33.2901 25.1634C32.735 25.3505 32.3604 25.6691 32.095 25.9045L33.4222 27.4007ZM33.055 27.7359C33.1826 27.6178 33.303 27.5064 33.4222 27.4007L32.095 25.9045C31.9572 26.0267 31.8212 26.1527 31.6962 26.2684L33.055 27.7359ZM32.1406 28.5127C32.4575 28.2919 32.7878 27.9834 33.055 27.7359L31.6962 26.2684C31.3951 26.5472 31.176 26.7472 30.9974 26.8717L32.1406 28.5127ZM29.7226 29.2685C29.8797 29.278 30.2115 29.2983 30.6511 29.1996C31.0871 29.1018 31.5882 28.8975 32.1406 28.5127L30.9973 26.8717C30.6433 27.1183 30.3796 27.2108 30.2134 27.2481C30.0508 27.2846 29.9427 27.2782 29.8435 27.2722L29.7226 29.2685ZM29.7252 29.2687L29.7255 29.2687L29.8406 27.272L29.8403 27.272L29.7252 29.2687ZM29.6905 29.2667C29.6946 29.2669 29.7016 29.2673 29.7223 29.2685L29.8432 27.2722C29.8274 27.2712 29.8016 27.2696 29.7767 27.2685L29.6905 29.2667ZM28.4617 29.2508C28.8145 29.2425 29.2216 29.2464 29.6904 29.2667L29.7768 27.2685C29.27 27.2466 28.8178 27.2418 28.4143 27.2514L28.4617 29.2508ZM26.5734 29.555C26.6567 29.4976 27.1025 29.283 28.4617 29.2508L28.4143 27.2514C26.9688 27.2856 26.0238 27.5049 25.4386 27.9081L26.5734 29.555ZM24.3752 35.277C24.5696 34.1988 24.8844 32.8909 25.2991 31.7602C25.5065 31.1947 25.7307 30.6963 25.9645 30.301C26.2055 29.8934 26.4179 29.6622 26.5735 29.555L25.4386 27.9081C24.942 28.2503 24.5517 28.7609 24.2429 29.2829C23.927 29.8172 23.6544 30.4363 23.4214 31.0715C22.9553 32.3423 22.6149 33.769 22.4069 34.9221L24.3752 35.277ZM24.4107 41.5221C24.3087 41.3786 24.1907 41.0905 24.1081 40.6103C24.0284 40.1471 23.9947 39.5855 24.0007 38.9657C24.0125 37.7268 24.1807 36.3555 24.3752 35.277L22.4069 34.9221C22.1991 36.0749 22.014 37.5632 22.0008 38.9466C21.9942 39.638 22.0301 40.3282 22.137 40.9495C22.241 41.5537 22.4266 42.1826 22.7802 42.6804L24.4107 41.5221ZM33.5069 44.5977C29.9204 43.9764 27.6907 43.2974 26.3208 42.7122C24.9354 42.1204 24.5066 41.6572 24.4107 41.5221L22.7802 42.6804C23.1795 43.2425 23.9897 43.8912 25.5351 44.5514C27.0961 45.2182 29.4891 45.9315 33.1655 46.5683L33.5069 44.5977ZM43.137 44.7612C42.9953 44.8589 42.4267 45.15 40.918 45.2406C39.4257 45.3302 37.0932 45.2189 33.5069 44.5977L33.1655 46.5683C36.842 47.2052 39.3391 47.339 41.0379 47.237C42.7203 47.136 43.7045 46.799 44.2718 46.4081L43.137 44.7612ZM45.3607 38.8982C45.1662 39.9767 44.8448 41.3216 44.4225 42.4899C44.2112 43.0743 43.9831 43.5912 43.7457 44.0004C43.4999 44.4242 43.2867 44.6581 43.137 44.7612L44.2718 46.408C44.7744 46.0617 45.1671 45.5361 45.4758 45.0039C45.7929 44.457 46.0679 43.8213 46.3034 43.1697C46.7746 41.8661 47.1211 40.406 47.3289 39.2531L45.3607 38.8982ZM45.2998 32.794C45.406 32.9435 45.5241 33.229 45.6079 33.6922C45.6891 34.1411 45.7254 34.684 45.7225 35.2847C45.7167 36.4858 45.5551 37.8199 45.3607 38.8982L47.3289 39.2531C47.5368 38.1001 47.7159 36.6452 47.7225 35.2944C47.7257 34.6191 47.6861 33.9453 47.5759 33.3362C47.4684 32.7415 47.2797 32.1276 46.9303 31.6358L45.2998 32.794ZM43.6394 31.8799C44.9056 32.367 45.2452 32.7171 45.2998 32.794L46.9303 31.6358C46.5181 31.0555 45.7028 30.5308 44.3575 30.0132L43.6394 31.8799ZM42.4799 31.4821C42.8396 31.5934 43.3128 31.7542 43.6394 31.8799L44.3575 30.0132C43.9797 29.8679 43.4627 29.6926 43.0711 29.5715L42.4799 31.4821ZM42.4492 31.4731C42.4691 31.4789 42.476 31.4809 42.48 31.4821L43.071 29.5714C43.0472 29.5641 43.0224 29.5569 43.007 29.5524L42.4492 31.4731ZM40.4343 29.9445C40.8202 30.4937 41.2213 30.8557 41.5984 31.0952C41.9785 31.3365 42.2983 31.4292 42.4491 31.473L43.0071 29.5524C42.9116 29.5247 42.8089 29.4947 42.6705 29.4068C42.5292 29.317 42.3156 29.1432 42.0708 28.7947L40.4343 29.9445ZM39.8454 28.9052C40.0097 29.2269 40.2128 29.6292 40.4343 29.9445L42.0708 28.7947C41.9475 28.6193 41.8123 28.3591 41.6267 27.9956L39.8454 28.9052ZM39.6179 28.4672C39.6928 28.6063 39.7668 28.7512 39.8454 28.9052L41.6267 27.9956C41.5498 27.845 41.466 27.6808 41.3791 27.5194L39.6179 28.4672ZM33.9977 41.9625C36.9263 42.4698 39.7499 40.5563 40.2755 37.6415L38.3072 37.2866C37.9829 39.0853 36.2193 40.3175 34.3391 39.9918L33.9977 41.9625ZM29.6001 35.7784C29.0735 38.6988 31.0642 41.4543 33.9977 41.9625L34.3391 39.9918C32.4638 39.667 31.2451 37.9262 31.5684 36.1332L29.6001 35.7784ZM35.8779 31.4574C32.9493 30.9501 30.1257 32.8636 29.6001 35.7784L31.5684 36.1332C31.8927 34.3346 33.6563 33.1024 35.5365 33.4281L35.8779 31.4574ZM40.2755 37.6415C40.802 34.7211 38.8113 31.9656 35.8779 31.4574L35.5365 33.4281C37.4118 33.7529 38.6305 35.4936 38.3072 37.2866L40.2755 37.6415Z" fill="#12A7B2"/>
</g>
<path fill-rule="evenodd" clip-rule="evenodd" d="M34.4257 3.92977L23.919 10.9964L23.919 10.9965C23.9173 10.9976 23.9138 11.0006 23.9108 11.0074C23.9081 11.0135 23.9073 11.0195 23.9077 11.0246L29.0516 12.0818C29.3875 12.1508 29.6646 12.3872 29.7857 12.708C29.9069 13.0288 29.8552 13.3893 29.6488 13.6632L25.5767 19.0662L25.5745 19.0704L36.0796 12.0045L36.0812 12.0034C36.0828 12.0023 36.0863 11.9993 36.0892 11.9926C36.092 11.9864 36.0927 11.9805 36.0923 11.9753L30.9485 10.9182C30.6125 10.8491 30.3354 10.6128 30.2143 10.2919C30.0931 9.97112 30.1448 9.61059 30.3512 9.33673L34.4235 3.93384L34.4257 3.92977ZM37.1943 13.665L37.1941 13.6651L26.6619 20.7493L26.6613 20.7497C25.8554 21.291 24.7766 21.1761 24.1087 20.4608C23.4478 19.753 23.3968 18.6844 23.9471 17.9063L23.9577 17.8916L23.9649 17.8818L27.0998 13.7225L23.429 12.968C23.4067 12.9634 23.3845 12.9581 23.3625 12.952C22.5945 12.7386 22.0413 12.0892 21.9287 11.3139C21.817 10.5449 22.1546 9.77284 22.8028 9.33688L22.8028 9.33685L26.3017 6.98357L25.5 6.52073C24.5718 5.98483 23.4282 5.98483 22.5 6.52073L9.61252 13.9613C8.90641 14.369 8.40655 15.0397 8.20778 15.8091L10.471 14.4512C11.1044 14.0712 11.8956 14.0712 12.529 14.4512L19.5145 18.6425C19.8157 18.8232 20 19.1487 20 19.5V27.9C20 28.6386 19.5929 29.3171 18.9412 29.6647L11.9706 33.3824C11.6765 33.5392 11.3235 33.5392 11.0294 33.3824L8.1393 31.841C8.26221 32.7547 8.80122 33.5703 9.61252 34.0387L22.5 41.4793C23.3337 41.9606 24.3411 42.0096 25.2102 41.6263C24.9303 41.5209 24.672 41.4161 24.4336 41.3124C22.9299 40.6583 22.142 40.0156 21.7545 39.4602C21.4126 38.9701 21.2333 38.3513 21.1327 37.7562C21.0292 37.144 20.9943 36.4633 21.0007 35.7808C21.0135 34.4151 21.1931 32.9453 21.3947 31.8066C21.5964 30.6676 21.9267 29.2585 22.3787 28.0037C22.6046 27.3765 22.8689 26.7654 23.1751 26.2381C23.474 25.7235 23.8528 25.2184 24.3366 24.8789C24.9097 24.4769 25.834 24.2596 27.2398 24.2256C27.6325 24.2162 28.0722 24.2209 28.5649 24.2426C28.588 24.2436 28.6118 24.2451 28.6273 24.2461L28.6302 24.2462C28.7256 24.2521 28.8268 24.2583 28.9803 24.2232C29.1377 24.1873 29.391 24.0973 29.7335 23.8544C29.9061 23.7319 30.1184 23.5346 30.411 23.2588L30.4145 23.2555C30.5348 23.1421 30.6656 23.0187 30.7982 22.899C31.0553 22.6668 31.421 22.3497 31.9647 22.1631C32.5107 21.9757 33.1337 21.9517 33.8897 22.0813L33.9295 22.0881C34.7393 22.2269 35.1477 22.2969 35.5559 22.3689C35.9641 22.4409 36.3718 22.5149 37.18 22.6614L37.2201 22.6687C37.9747 22.8055 38.5517 23.0412 39.0004 23.404C39.447 23.7653 39.6817 24.1883 39.8434 24.4944L39.8684 24.5418L39.8875 24.5785V16.5594C39.8875 15.4876 39.3157 14.4972 38.3875 13.9613L37.4773 13.4358C37.3926 13.5182 37.2998 13.5938 37.1997 13.6614L37.197 13.6632L37.1963 13.6636L37.1943 13.665ZM6.11252 30.76V31.4406C6.11252 33.2269 7.06551 34.8776 8.61252 35.7707L21.5 43.2113C23.047 44.1045 24.953 44.1045 26.5 43.2113L27.8276 42.4449C28.9523 42.7404 30.2802 43.0315 31.848 43.308C35.4189 43.9379 37.846 44.0705 39.4987 43.9695C41.1359 43.8694 42.0968 43.5352 42.6516 43.146C43.1412 42.8025 43.5221 42.2826 43.821 41.7579C44.1284 41.2182 44.395 40.5906 44.6234 39.9473C45.0804 38.6599 45.4165 37.2178 45.6181 36.079C45.8198 34.9401 45.9935 33.5033 45.9998 32.1699C46.003 31.5034 45.9646 30.839 45.858 30.2389C45.7539 29.6531 45.5716 29.0491 45.2336 28.5647C44.8334 27.9909 44.0397 27.4706 42.7306 26.9579C42.4845 26.8614 42.1777 26.7518 41.8875 26.6538V16.5594C41.8875 14.7731 40.9345 13.1224 39.3875 12.2293L38.0197 11.4396C37.8369 10.7751 37.3221 10.2376 36.6364 10.0477C36.6148 10.0417 36.5929 10.0364 36.5709 10.0319L32.9003 9.2775L36.0352 5.11843C36.0412 5.11042 36.0471 5.10232 36.0529 5.09413C36.6035 4.31607 36.5526 3.24719 35.8915 2.53926C35.2235 1.82387 34.1445 1.70905 33.3385 2.25068L33.3382 2.2509L28.1493 5.74089L26.5 4.78868C24.953 3.89551 23.047 3.89551 21.5 4.78867L8.61252 12.2293C7.06551 13.1224 6.11252 14.7731 6.11252 16.5594V17.0663L3.4855 18.6425C3.1843 18.8232 3 19.1487 3 19.5V27.9C3 28.6386 3.4071 29.3171 4.05882 29.6647L6.11252 30.76ZM33.5565 24.0169L33.5907 24.0228C34.4059 24.1625 34.8099 24.2318 35.2135 24.303C35.6164 24.374 36.0192 24.4471 36.8308 24.5942L36.8334 24.5947L36.8338 24.5948L36.8683 24.601C37.4089 24.6991 37.645 24.8358 37.7614 24.9299C37.8797 25.0256 37.9618 25.1439 38.1028 25.4106C38.1756 25.5484 38.2475 25.6917 38.3238 25.8439L38.3412 25.8786C38.4976 26.1906 38.6879 26.5701 38.8948 26.87C39.2689 27.4121 39.6585 27.7706 40.0265 28.0085C40.3974 28.2483 40.7105 28.3409 40.8582 28.3846L40.8876 28.3934C41.2364 28.5033 41.6952 28.6621 42.0116 28.7861C43.238 29.2665 43.5656 29.6109 43.6186 29.6869C43.723 29.8365 43.8385 30.1215 43.9203 30.5817C43.9995 31.0275 44.0348 31.5658 44.0319 32.1606C44.0263 33.3499 43.8692 34.6704 43.6803 35.7372C43.4913 36.8043 43.1789 38.1351 42.7684 39.2914C42.5631 39.8699 42.3412 40.3818 42.1102 40.7872C41.8708 41.2077 41.6635 41.4385 41.5198 41.5393C41.3861 41.6331 40.8395 41.9199 39.3784 42.0092C37.9329 42.0975 35.671 41.9879 32.1905 41.374C28.71 40.7601 26.5474 40.0894 25.2198 39.5119C23.8779 38.9283 23.4629 38.4718 23.3696 38.338C23.2692 38.1942 23.1538 37.9064 23.0732 37.4295C22.9955 36.9697 22.9628 36.4128 22.9685 35.7992C22.98 34.5725 23.1436 33.2154 23.3326 32.1484C23.5215 31.0815 23.8274 29.7873 24.2305 28.6681C24.4322 28.1084 24.6502 27.6147 24.8777 27.223C25.1125 26.8187 25.3189 26.5905 25.4684 26.4856C25.5443 26.4324 25.9703 26.2208 27.2874 26.189C27.6292 26.1808 28.0237 26.1847 28.4782 26.2047L28.5093 26.2065C28.6631 26.216 28.9886 26.2361 29.4194 26.1377C29.8468 26.0401 30.3359 25.8366 30.8735 25.4553C31.1709 25.2443 31.48 24.9528 31.734 24.7132L31.7623 24.6866C31.8863 24.5697 32.003 24.4597 32.1187 24.3552C32.3427 24.1529 32.4606 24.0698 32.6046 24.0204C32.7462 23.9718 33.015 23.9241 33.5565 24.0169ZM34.4925 28.384C31.6229 27.8779 28.8856 29.7892 28.3785 32.653C27.8714 35.5169 29.7865 38.2487 32.656 38.7549C35.5255 39.261 38.2629 37.3497 38.77 34.4859C39.2771 31.622 37.362 28.8902 34.4925 28.384ZM30.3164 32.9948C30.6343 31.1991 32.3507 30.0007 34.15 30.3181C35.9493 30.6354 37.1501 32.3484 36.8321 34.1441C36.5141 35.9398 34.7977 37.1382 32.9985 36.8208C31.1992 36.5035 29.9984 34.7905 30.3164 32.9948ZM5 27.9V21.2662L10.5 24.5662V30.8333L5 27.9ZM12.5 30.8333V24.5662L18 21.2662V27.9L12.5 30.8333ZM11.5 22.8338L17.0563 19.5L11.5 16.1662L5.94365 19.5L11.5 22.8338Z" fill="#12A7B2"/>
</svg>
